<?xml version="1.0" encoding="UTF-8" standalone="no"?>
<!DOCTYPE svg PUBLIC "-//W3C//DTD SVG 1.1//EN" "http://www.w3.org/Graphics/SVG/1.1/DTD/svg11.dtd">
<svg width="100%" height="100%" viewBox="0 0 1116 816" version="1.1" xmlns="http://www.w3.org/2000/svg" xmlns:xlink="http://www.w3.org/1999/xlink" xml:space="preserve" xmlns:serif="http://www.serif.com/" style="fill-rule:evenodd;clip-rule:evenodd;stroke-linejoin:round;stroke-miterlimit:2;">
    <g transform="matrix(1,0,0,1,-1298.59,-617.227)">
        <g>
            <g transform="matrix(1,0,0,1,526.011,617.227)">
                <path d="M866.3,0L867.55,0C884.003,0.053 898.3,4.563 910.44,13.53C935.79,32.27 937.61,64.06 927.79,91.81C924.057,102.377 920.187,112.793 916.18,123.06C916.173,123.078 916.167,123.096 916.161,123.114C916.065,123.44 916.258,123.789 916.589,123.887C916.606,123.892 916.623,123.896 916.64,123.9C949.39,130.79 972.95,110.45 991.24,86.22C1005.61,67.18 1020.46,45.83 1037.31,30.07C1057.66,11.043 1082.14,1.507 1110.77,1.46C1121.76,1.44 1132.4,2.18 1141.29,5.57C1155.25,10.88 1152.8,30.71 1139.14,34.73C1136.97,35.37 1133.85,35.477 1129.78,35.05C1121.53,34.197 1116.02,33.783 1113.25,33.81C1078.61,34.11 1056.99,52.83 1037.3,78.81C1017.87,104.43 998.67,134.25 968.87,148.92C968.543,149.08 968.493,149.3 968.72,149.58C988.85,174.42 991.88,204.72 989.26,235.73C987.547,256.063 985.89,276.403 984.29,296.75C982.05,325.39 981.22,357.89 990.99,386.04C999.35,410.13 1016.72,422.87 1041.21,426.06C1052.98,427.59 1064.1,426.09 1075.55,425.7C1075.88,425.687 1076.15,425.55 1076.35,425.29C1081.61,418.51 1084.97,414.227 1086.42,412.44C1114.01,378.57 1151.94,356.93 1196.8,359.01C1229.54,360.52 1257.75,385.51 1244.65,420.6C1234.88,446.76 1208.69,454.77 1183.5,457.22C1153.67,460.11 1123.48,458.14 1093.57,457.5C1093.23,457.487 1092.97,457.627 1092.8,457.92C1075.04,487.91 1063.75,522.79 1056.86,556.77C1049.3,593.99 1046.09,642.85 1080.98,668.83C1103.4,685.52 1133.83,683.52 1157.25,669.43C1186.14,652.05 1203.58,624.01 1212.34,592.21C1212.43,591.857 1212.33,591.58 1212.02,591.38C1197.64,582.19 1183.68,569.61 1180.96,551.8C1176.15,520.23 1209.14,496.3 1237.82,510.24C1247.34,514.867 1254,522.337 1257.79,532.65C1262.64,545.8 1259.41,558.18 1253.84,570.18C1253.63,570.627 1253.77,570.82 1254.26,570.76C1259.61,570.107 1264.71,568.823 1269.58,566.91C1273.52,565.363 1276.21,564.557 1277.65,564.49C1287.68,564.03 1296.24,573.84 1293.11,583.83C1284.2,612.263 1274.9,640.563 1265.2,668.73C1263.23,674.46 1266.22,677.42 1271.86,676.51C1288.43,673.84 1302.5,654.81 1310.07,641.27C1314.61,633.15 1319.18,619.88 1324.86,610.6C1350.25,569.13 1402.18,529.34 1452.86,554.72C1453.2,554.893 1453.45,554.803 1453.62,554.45C1454.99,551.48 1456.29,548.3 1458.52,546.12C1464.06,540.68 1473.36,540.45 1479.14,545.11C1485.32,550.08 1486.35,557.05 1483.61,564.34C1479.45,575.387 1470.62,599.383 1457.12,636.33C1454.04,644.75 1445.45,674.79 1458.74,678.54C1483.29,685.46 1507.96,629.5 1515.25,612.88C1516.64,609.7 1519.25,607.84 1520.39,604.42C1535.56,559.147 1550.79,513.897 1566.09,468.67C1569.37,458.98 1578.92,451.75 1589.2,457.79C1603.26,466.06 1595.67,479.82 1591.86,491.16C1558.64,589.853 1531.81,669.147 1511.37,729.04C1505.95,744.91 1500.34,764.35 1506.15,780.89C1508.76,788.32 1518.79,781.85 1522.22,778.97C1548.99,756.56 1565.74,720.15 1571.53,686.67C1573.66,674.3 1573.81,660.72 1565.68,650.16C1565.47,649.887 1565.19,649.713 1564.85,649.64C1555.42,647.65 1549.61,639.37 1552.27,629.75C1554.38,622.11 1560.93,618.94 1568.6,618.57C1605.91,616.74 1640.48,603.26 1667.23,577.15C1668.29,576.117 1669.06,574.88 1669.53,573.44C1673.64,560.927 1677.68,548.38 1681.65,535.8C1681.76,535.467 1681.63,535.3 1681.28,535.3C1671.95,535.27 1665.46,536.64 1655.57,538.96C1651.66,539.88 1648.73,540.177 1646.8,539.85C1629.83,537.01 1629.45,514.2 1645.26,509C1659.94,504.167 1675.34,502.42 1691.46,503.76C1691.81,503.787 1692.04,503.633 1692.15,503.3C1697.54,486.447 1702.97,469.603 1708.43,452.77C1709.94,448.13 1711.42,444.897 1712.89,443.07C1718.9,435.6 1729.3,435.48 1736.11,441.98C1740.63,446.287 1741.75,452.023 1739.48,459.19C1734.45,475.017 1729.47,490.867 1724.56,506.74C1724.47,507.053 1724.58,507.237 1724.9,507.29C1731.93,508.363 1738.96,508.487 1746.01,507.66C1766.82,505.24 1772.32,534.52 1750.13,538.79C1739.06,540.92 1726.66,539.65 1715.55,537.91C1714.94,537.817 1714.34,538.188 1714.15,538.78C1701.73,578.173 1688.89,617.583 1675.63,657.01C1671.51,669.26 1674.11,677.07 1688.39,677.77C1717.97,679.2 1737.69,643.28 1748.02,621C1749.88,616.993 1751.56,614.253 1753.07,612.78C1763.03,603.07 1780.06,610.43 1779.51,624.28C1779.4,627.107 1778.25,630.907 1776.07,635.68C1763.7,662.77 1744.77,690.8 1717.11,703.37C1700.86,710.76 1679.43,711.9 1663.59,702.85C1644.63,692.02 1637.73,670.26 1644.74,649.96C1647.25,642.68 1649.68,635.367 1652.03,628.02C1652.14,627.667 1652.04,627.577 1651.71,627.75C1635.44,636.403 1618.27,642.533 1600.2,646.14C1599.8,646.22 1599.66,646.453 1599.78,646.84C1613.97,692.94 1588.71,751.54 1559.21,786.69C1546.98,801.27 1530.58,814.47 1510.95,816L1509.44,816C1482.45,814.57 1471.79,790.23 1472.33,766.49C1472.82,745.17 1479.04,725.79 1486.03,705.92C1486.04,705.881 1486.05,705.84 1486.05,705.798C1486.05,705.595 1485.88,705.428 1485.68,705.428C1485.62,705.428 1485.56,705.443 1485.51,705.47C1458.98,718.44 1427.73,707.22 1421.17,676.7C1419.54,669.09 1420.31,662.31 1420.27,655.42C1420.27,655.419 1420.27,655.418 1420.27,655.417C1420.27,655.214 1420.1,655.047 1419.9,655.047C1419.78,655.047 1419.67,655.104 1419.6,655.2C1410.99,666.98 1401.71,677.657 1391.76,687.23C1368.56,709.57 1334.03,724.93 1313.99,687.68C1313.92,687.546 1313.78,687.462 1313.62,687.462C1313.51,687.462 1313.41,687.504 1313.33,687.58C1297.99,702.63 1273.28,715.4 1251.73,703.9C1235.29,695.13 1229.66,676.32 1235.39,658.66C1239.84,644.933 1246.08,626.373 1254.11,602.98C1254.21,602.687 1254.1,602.537 1253.79,602.53L1242.98,602.24C1242.6,602.227 1242.36,602.403 1242.25,602.77C1232.09,639.17 1210.16,672.96 1178.41,693.95C1141.06,718.64 1092.32,719.45 1057.23,690C1026.29,664.03 1017.29,623.65 1021.04,584.94C1025.31,540.867 1037.12,498.92 1056.45,459.1C1056.65,458.693 1056.53,458.52 1056.08,458.58C1046.38,459.88 1037.59,458.73 1026.77,456.85C952.72,444.03 947.38,362.34 951.69,304.01C953.457,280.143 955.303,256.28 957.23,232.42C957.72,226.4 958.18,220.3 957.78,214.54C955.81,186.4 936.95,154.28 905.14,153.89C904.813,153.883 904.59,154.033 904.47,154.34C879.13,221.547 853.753,288.733 828.34,355.9C825.97,362.16 823.1,372.87 818.66,377.69C808.2,389.03 786.8,379.15 791.84,363.96C795.393,353.253 798.367,344.697 800.76,338.29C821.127,283.81 853.39,198.053 897.55,81.02C899.203,76.64 900.323,71.243 900.91,64.83C903.69,34.46 873.85,28.55 851.23,34.42C818.37,42.95 799.66,72.82 805.76,106.25C806.193,108.623 807.317,113.597 809.13,121.17C812,133.16 799.9,143.63 788.31,139.91C781.85,137.84 779.33,132.91 777.4,126.23C766.62,88.92 773.37,50.88 803.09,24.47C820.73,8.803 841.8,0.647 866.3,0ZM1116.58,426.46C1139.86,427.36 1163.51,428.3 1186.68,425.45C1198.17,424.03 1211.15,420.22 1215.54,409.02C1219.82,398.07 1207.85,392.46 1199.5,391.28C1167.42,386.73 1137.59,403.31 1116.39,426C1116.12,426.293 1116.18,426.447 1116.58,426.46ZM1216.32,538.78C1205.99,545.74 1215.88,555.91 1222.51,560.36C1222.8,560.553 1223.05,560.507 1223.26,560.22C1226.51,555.687 1228.1,550.617 1228.05,545.01C1227.99,538.77 1221.01,535.62 1216.32,538.78ZM1347.41,679.18C1363,686.87 1399.08,630.77 1405.25,620.99C1411.43,611.18 1419.98,606.77 1430.99,614.12C1431.28,614.307 1431.48,614.24 1431.6,613.92L1442.17,585.5C1442.26,585.233 1442.19,585.023 1441.95,584.87C1409.23,564.59 1371.28,596.84 1354.72,622.92C1350.53,629.53 1347.17,637.82 1343.78,645.39C1339.93,653.97 1336.2,673.66 1347.41,679.18Z" style="fill-rule:nonzero;"/>
            </g>
            <g transform="matrix(1,0,0,1,526.011,617.227)">
                <path d="M1888,183.82L1888,188.06C1887.07,215 1880,240.34 1869.2,264.81C1863.79,277.09 1858.4,288.3 1851.15,298.41C1842.27,310.8 1830.26,326.41 1814.84,335.97C1801.4,344.3 1778.88,353.41 1763.65,344.53C1744.94,333.62 1752.4,305.21 1757.31,289.06C1763.68,268.15 1772.41,247.53 1780.89,227.07C1782.48,223.24 1784.77,214.39 1782.6,210.75C1777.4,202.02 1756.61,210.93 1749.96,214.77C1743.61,218.44 1737.36,221.56 1734.46,227.67C1734.31,227.983 1733.39,230.553 1731.68,235.38C1718.23,273.533 1704.74,311.667 1691.2,349.78C1687.98,358.85 1678.83,362.53 1670.05,359.33C1664.49,357.3 1658.52,348.98 1660.56,342.96C1663.19,335.213 1665.79,327.477 1668.37,319.75C1668.53,319.263 1668.4,319.16 1667.97,319.44C1644.42,334.82 1620.85,346.8 1591.88,345.89C1567.77,345.14 1548.65,334.73 1538.06,312.16C1537.91,311.827 1537.72,311.807 1537.49,312.1C1522.74,331.38 1502.23,346.02 1477.22,346.16C1443.8,346.34 1421.76,319.59 1433.01,286.63C1439.34,268.083 1445.63,249.527 1451.9,230.96C1452.53,229.1 1452.84,226.95 1453.26,224.96C1454.73,217.94 1447.92,212.97 1441.41,212.27C1424.74,210.47 1410.55,222.27 1401.03,234.77C1398.35,238.29 1396.22,242.157 1394.65,246.37C1393.1,250.53 1391.85,254.8 1390.92,259.18C1390.32,262.01 1388.77,263.8 1387.9,266.36C1376.59,299.807 1365.29,333.257 1354.02,366.71C1351.17,375.15 1349.01,383.99 1342.55,387.4C1329.45,394.31 1316.04,381.95 1320.61,368.28C1325.99,352.173 1331.37,336.06 1336.75,319.94C1336.89,319.527 1336.78,319.447 1336.42,319.7C1314.46,335.45 1287.22,347.08 1259.98,345.89C1236.65,344.87 1218.02,334.31 1207.3,312.88C1207.13,312.527 1206.92,312.507 1206.68,312.82C1190.21,334.13 1165.29,348.57 1137.77,345.45C1122.67,343.73 1111.12,336.557 1103.12,323.93C1102.93,323.623 1102.7,323.59 1102.43,323.83C1085.29,339.09 1065.57,347.81 1042.5,345.02C1017.99,342.05 1000.92,321.45 1003.73,296.79C1004.18,292.81 1005.93,286.397 1008.98,277.55C1022.77,237.397 1036.77,197.327 1051,157.34C1051.97,154.6 1053.39,150.55 1054.96,147.99C1060.48,139.04 1071.2,138.25 1078.73,144.88C1083.72,149.267 1084.88,155.293 1082.23,162.96C1067.99,204.093 1053.74,245.233 1039.48,286.38C1036.45,295.13 1030.22,308.51 1042.81,313.01C1046.91,314.477 1051.73,314.653 1057.26,313.54C1081.86,308.6 1097.14,282.15 1107.12,261.84C1109.52,256.967 1111.94,250.77 1114.39,243.25C1122.08,219.657 1129.7,196.033 1137.23,172.38C1137.34,172.007 1137.21,171.83 1136.82,171.85C1127.85,172.183 1119.06,173.503 1110.46,175.81C1104.52,177.4 1099.85,177.13 1095.31,173.47C1087.59,167.25 1086.96,156.34 1094.11,149.66C1096.01,147.88 1098.87,146.397 1102.68,145.21C1117.05,140.73 1131.77,139.15 1146.83,140.47C1147.28,140.51 1147.57,140.317 1147.7,139.89C1152.57,124.677 1157.5,109.38 1162.49,94C1164.21,88.71 1165.55,82.96 1168.89,79.25C1180.63,66.19 1200.21,78.77 1195.05,95.45C1190.09,111.477 1185.09,127.48 1180.06,143.46C1179.97,143.753 1180.07,143.923 1180.38,143.97C1187.77,145.13 1194.31,145.293 1199.98,144.46C1224.07,140.91 1228.9,174.83 1200.13,176.33C1190.21,176.843 1180.43,176.237 1170.78,174.51C1170.35,174.436 1169.93,174.694 1169.8,175.11C1157.31,214.703 1144.43,254.237 1131.16,293.71C1127.05,305.97 1129.67,313.75 1143.6,314.46C1179.92,316.29 1201.34,264.04 1212.9,236.07C1223.5,210.43 1240.99,184.41 1264.79,169.54C1287.11,155.59 1318.98,157.53 1333.2,181.45C1349.66,209.16 1332.1,240.87 1308.34,256.77C1292.8,267.17 1276.39,247.57 1287.16,234.67C1290.48,230.69 1296.78,226.61 1300.3,222.49C1305.8,216.04 1312.87,203.68 1305.25,195.84C1298.27,188.64 1286.41,192.25 1279.47,197.25C1256,214.17 1240.7,243.84 1233.94,271.29C1231.77,280.137 1231.87,288.46 1234.26,296.26C1240.89,317.89 1266.29,317.06 1283.46,311.58C1314.87,301.55 1340.71,279.76 1358.92,252.67C1360.89,249.74 1362.29,244.61 1363.48,241.11C1375.04,206.963 1386.6,172.817 1398.16,138.67C1398.29,138.297 1398.15,138.103 1397.76,138.09C1363.65,137.01 1300.98,135.65 1290.36,92.26C1285.52,72.48 1313.23,63.99 1320.58,83.48C1322.43,88.39 1326.13,94.22 1331.01,96.88C1343.16,103.51 1356.59,105.2 1370.2,106.14C1383.01,107.027 1395.74,107.223 1408.37,106.73C1408.76,106.717 1409.11,106.461 1409.23,106.09C1412.5,96.47 1415.79,86.823 1419.1,77.15C1424.56,61.22 1445.65,62.38 1449.21,78.63C1449.53,80.07 1449.42,81.64 1448.87,83.34C1446.69,90.16 1444.53,96.98 1442.4,103.8C1442.29,104.153 1442.41,104.313 1442.78,104.28C1502,98.98 1560.78,90.54 1619.68,82.61C1659.07,77.3 1698.94,73.11 1738.68,71.7C1757.41,71.04 1775.7,72.193 1793.57,75.16C1844.22,83.57 1882.15,115.52 1887.08,169.25C1887.52,174.077 1887.83,178.933 1888,183.82ZM1741.28,176.05C1743.08,177.53 1744.65,179.95 1745.92,181.97C1746.12,182.292 1746.55,182.399 1746.87,182.21C1757.99,176 1770.92,173.96 1783.49,173.95C1809.04,173.92 1822.36,190.59 1817.3,215.57C1815.47,224.65 1812.24,234.527 1807.62,245.2C1801.15,260.18 1795.23,275.377 1789.87,290.79C1788.17,295.68 1782.56,312.53 1788.43,315.48C1792.21,317.38 1801.03,311.29 1804.01,308.5C1808.88,303.93 1813.27,299.09 1817.05,293.33C1831.74,270.917 1842.83,246.863 1850.33,221.17C1856.04,201.61 1858.23,179.88 1853.25,160.01C1837.34,96.58 1755.7,101.63 1707.57,105.63C1669.09,108.83 1630.73,113.103 1592.49,118.45C1533.31,126.73 1485.6,133.3 1431.85,136.84C1431.6,136.859 1431.39,137.025 1431.31,137.26L1415.59,184.06C1415.44,184.52 1415.59,184.673 1416.05,184.52C1427.69,180.587 1439,179.743 1449.99,181.99C1472.21,186.53 1486.43,205.67 1484.63,228.2C1484.35,231.74 1483.13,236.64 1480.98,242.9C1474.51,261.693 1468.22,280.55 1462.1,299.47C1460.01,305.94 1462.24,311.24 1468.78,313.65C1476.08,316.35 1483.93,315 1490.79,311.95C1514.21,301.54 1531.31,265.32 1540.6,243.1C1550.82,218.67 1563.58,196.07 1583.82,178.33C1601.09,163.2 1624.31,154.84 1646.39,165.41C1660.97,172.39 1669.77,186.37 1670.61,202.42C1672.6,240.05 1632.14,264.86 1602.56,277.03C1589.56,282.377 1576.72,284.943 1564.03,284.73C1563.75,284.723 1563.61,284.86 1563.62,285.14C1564.36,316.11 1592.09,318.67 1615.31,311.56C1646.23,302.1 1673.81,277.39 1691.22,250.72C1692.85,248.227 1694.21,245.41 1695.31,242.27C1702.12,222.79 1708.96,203.32 1715.85,183.86C1719.86,172.52 1732.13,168.49 1741.28,176.05ZM1634.65,194.58C1620.49,185.08 1602.25,202.2 1593.85,212.59C1584.02,224.743 1576.28,238.117 1570.61,252.71C1570.46,253.097 1570.59,253.27 1571.01,253.23C1592.75,250.96 1624.06,234.15 1635.84,215.63C1639.94,209.19 1641.56,199.22 1634.65,194.58Z" style="fill-rule:nonzero;"/>
            </g>
            <g transform="matrix(1,0,0,1,526.011,617.227)">
                <path d="M1074.66,94.42C1079.2,83.97 1093.21,83.81 1100.18,91.05C1105.35,96.41 1104.88,102.64 1102.31,109.65C1100.28,115.18 1096.95,125.17 1092.05,128.53C1080.19,136.65 1064.18,124.99 1068.22,110.99C1069.21,107.537 1071.36,102.013 1074.66,94.42Z" style="fill-rule:nonzero;"/>
            </g>
        </g>
    </g>
</svg>
